<svg xmlns="http://www.w3.org/2000/svg" width="30" height="30" viewBox="0 0 30 30">
  <metadata><?xpacket begin="﻿" id="W5M0MpCehiHzreSzNTczkc9d"?>
<x:xmpmeta xmlns:x="adobe:ns:meta/" x:xmptk="Adobe XMP Core 5.6-c138 79.159824, 2016/09/14-01:09:01        ">
   <rdf:RDF xmlns:rdf="http://www.w3.org/1999/02/22-rdf-syntax-ns#">
      <rdf:Description rdf:about=""/>
   </rdf:RDF>
</x:xmpmeta>
                                                                                                    
                                                                                                    
                                                                                                    
                                                                                                    
                                                                                                    
                                                                                                    
                                                                                                    
                                                                                                    
                                                                                                    
                                                                                                    
                                                                                                    
                                                                                                    
                                                                                                    
                                                                                                    
                                                                                                    
                                                                                                    
                                                                                                    
                                                                                                    
                                                                                                    
                                                                                                    
                           
<?xpacket end="w"?></metadata>
<defs>
    <style>
      .cls-1 {
        fill: #088bf0;
        fill-rule: evenodd;
      }
    </style>
  </defs>
  <path id="icon-email" class="cls-1" d="M999.059,1373.3a2.64,2.64,0,1,0,2.641,2.64A2.645,2.645,0,0,0,999.059,1373.3Zm-0.118-12.3a15,15,0,0,0,0,30A15,15,0,1,0,998.941,1361Zm6.269,19.34a3.518,3.518,0,0,1-2.87-1.5,4.394,4.394,0,1,1-.64-6.39v-0.02a0.875,0.875,0,1,1,1.75,0v4.39a1.76,1.76,0,0,0,3.52,0c0-5.88-3.89-8.79-7.911-8.79a7.91,7.91,0,1,0,0,15.82,7.807,7.807,0,0,0,4.811-1.63,0.881,0.881,0,0,1,1.07,1.4,9.671,9.671,0,1,1-5.881-17.35c4.861,0,9.671,3.59,9.671,10.55A3.525,3.525,0,0,1,1005.21,1380.34Z" transform="translate(-984 -1361)"/>
</svg>
