<svg xmlns="http://www.w3.org/2000/svg" width="30.032" height="30" viewBox="0 0 30.032 30">
  <metadata><?xpacket begin="﻿" id="W5M0MpCehiHzreSzNTczkc9d"?>
<x:xmpmeta xmlns:x="adobe:ns:meta/" x:xmptk="Adobe XMP Core 5.6-c138 79.159824, 2016/09/14-01:09:01        ">
   <rdf:RDF xmlns:rdf="http://www.w3.org/1999/02/22-rdf-syntax-ns#">
      <rdf:Description rdf:about=""/>
   </rdf:RDF>
</x:xmpmeta>
                                                                                                    
                                                                                                    
                                                                                                    
                                                                                                    
                                                                                                    
                                                                                                    
                                                                                                    
                                                                                                    
                                                                                                    
                                                                                                    
                                                                                                    
                                                                                                    
                                                                                                    
                                                                                                    
                                                                                                    
                                                                                                    
                                                                                                    
                                                                                                    
                                                                                                    
                                                                                                    
                           
<?xpacket end="w"?></metadata>
<defs>
    <style>
      .cls-1 {
        fill: #088bf0;
        fill-rule: evenodd;
      }
    </style>
  </defs>
  <path id="icon-phone" class="cls-1" d="M1009.29,1285.21a15,15,0,0,0-21.842,20.54l0.156,0.13a7.148,7.148,0,0,1-3.086,3.49,0.577,0.577,0,0,0,.168,1.09,8.5,8.5,0,0,0,6.379-1.74l0.031,0.03a15,15,0,0,0,18.194-23.54h0Zm-5.66,17.02c-0.33.34-.68,0.65-0.99,1a1.954,1.954,0,0,1-1.68.63,6.928,6.928,0,0,1-2.669-.78,14.45,14.45,0,0,1-4.82-3.77,13.338,13.338,0,0,1-2.35-3.91,5.188,5.188,0,0,1-.393-2.19,1.792,1.792,0,0,1,.555-1.19c0.374-.36.723-0.73,1.091-1.09a1.038,1.038,0,0,1,1.559,0c0.3,0.29.586,0.59,0.879,0.88s0.573,0.57.854,0.85a1.042,1.042,0,0,1,0,1.6c-0.355.36-.711,0.72-1.079,1.07a0.229,0.229,0,0,0-.056.29,6.475,6.475,0,0,0,.973,1.56,11.048,11.048,0,0,0,2.725,2.47c0.224,0.15.473,0.25,0.71,0.38a0.214,0.214,0,0,0,.3-0.06c0.355-.37.723-0.73,1.081-1.09a1.039,1.039,0,0,1,1.56,0c0.58,0.58,1.16,1.16,1.74,1.75a1.048,1.048,0,0,1,.01,1.6h0Zm-5.532-9.69,0.187-1.33a5.974,5.974,0,0,1,5.045,4.88l-1.33.23a4.615,4.615,0,0,0-3.9-3.78h0Zm7.4,3.55a8.556,8.556,0,0,0-7.228-7l0.187-1.34a9.911,9.911,0,0,1,8.371,8.11Zm0,0" transform="translate(-983.688 -1280.81)"/>
</svg>
