<svg xmlns="http://www.w3.org/2000/svg" width="30" height="30" viewBox="0 0 30 30">
  <metadata><?xpacket begin="﻿" id="W5M0MpCehiHzreSzNTczkc9d"?>
<x:xmpmeta xmlns:x="adobe:ns:meta/" x:xmptk="Adobe XMP Core 5.6-c138 79.159824, 2016/09/14-01:09:01        ">
   <rdf:RDF xmlns:rdf="http://www.w3.org/1999/02/22-rdf-syntax-ns#">
      <rdf:Description rdf:about=""/>
   </rdf:RDF>
</x:xmpmeta>
                                                                                                    
                                                                                                    
                                                                                                    
                                                                                                    
                                                                                                    
                                                                                                    
                                                                                                    
                                                                                                    
                                                                                                    
                                                                                                    
                                                                                                    
                                                                                                    
                                                                                                    
                                                                                                    
                                                                                                    
                                                                                                    
                                                                                                    
                                                                                                    
                                                                                                    
                                                                                                    
                           
<?xpacket end="w"?></metadata>
<defs>
    <style>
      .cls-1 {
        fill: #088bf0;
        fill-rule: evenodd;
      }
    </style>
  </defs>
  <path id="icon-pin" class="cls-1" d="M998.97,1221.08a2.942,2.942,0,0,1,2.08,5.02,2.938,2.938,0,0,1-5.02-2.08,2.928,2.928,0,0,1,2.94-2.94h0Zm7.32,3a7.037,7.037,0,0,0-.57-2.82,7.358,7.358,0,0,0-1.56-2.31,7.587,7.587,0,0,0-2.31-1.58,7.044,7.044,0,0,0-2.82-.58h-0.06a7.044,7.044,0,0,0-2.82.58,7.587,7.587,0,0,0-2.31,1.58,7.358,7.358,0,0,0-1.56,2.31,7.037,7.037,0,0,0-.57,2.82v0.21a0.122,0.122,0,0,0,.03.09,6.091,6.091,0,0,0,.15,1.29,4.8,4.8,0,0,0,.42,1.2q0.36,0.78.87,1.71c0.34,0.62.705,1.27,1.1,1.93s0.765,1.29,1.125,1.86,0.68,1.06.96,1.47a6.818,6.818,0,0,0,.6.8q0.24,0.24.555,0.51t0.615,0.48a4.38,4.38,0,0,0,.54.33,0.944,0.944,0,0,0,.33.12,0.84,0.84,0,0,0,.315-0.12c0.15-.08.325-0.19,0.525-0.32a5.808,5.808,0,0,0,.62-0.46c0.21-.18.4-0.36,0.58-0.54a6.818,6.818,0,0,0,.6-0.8c0.28-.41.6-0.9,0.96-1.48s0.74-1.2,1.13-1.86,0.75-1.31,1.09-1.93c0.34-.64.62-1.21,0.86-1.72a6.09,6.09,0,0,0,.43-1.18c0.04-.22.07-0.43,0.09-0.64s0.04-.43.06-0.65v-0.09a0.2,0.2,0,0,1,.02-0.09c0-.02.01-0.05,0.01-0.09v-0.03ZM999,1211a14.757,14.757,0,0,1,5.84,1.18,15.047,15.047,0,0,1,7.98,7.99A14.5,14.5,0,0,1,1014,1226a14.667,14.667,0,0,1-.54,3.99,15.161,15.161,0,0,1-1.51,3.58,15.371,15.371,0,0,1-5.37,5.38,15.234,15.234,0,0,1-3.59,1.51,15.011,15.011,0,0,1-7.98,0,15.2,15.2,0,0,1-3.585-1.51,15.154,15.154,0,0,1-5.37-5.38,15.174,15.174,0,0,1-1.515-3.58,15.011,15.011,0,0,1,0-7.98,15.037,15.037,0,0,1,3.855-6.61,14.653,14.653,0,0,1,3.03-2.35,15.626,15.626,0,0,1,3.585-1.51A14.667,14.667,0,0,1,999,1211h0Zm0,0" transform="translate(-984 -1211)"/>
</svg>
