<svg xmlns="http://www.w3.org/2000/svg" width="91.969" height="31.031" viewBox="0 0 91.969 31.031">
  <metadata><?xpacket begin="﻿" id="W5M0MpCehiHzreSzNTczkc9d"?>
<x:xmpmeta xmlns:x="adobe:ns:meta/" x:xmptk="Adobe XMP Core 5.6-c138 79.159824, 2016/09/14-01:09:01        ">
   <rdf:RDF xmlns:rdf="http://www.w3.org/1999/02/22-rdf-syntax-ns#">
      <rdf:Description rdf:about=""/>
   </rdf:RDF>
</x:xmpmeta>
<?xpacket end="w"?></metadata>
<defs>
    <style>
      .cls-1 {
        fill: #454553;
        fill-rule: evenodd;
      }
    </style>
  </defs>
  <path id="_57" data-name="№57" class="cls-1" d="M443.827,301.374V271.657h-6.671v17.11q-1.378-2.315-2.991-4.76t-3.293-4.695q-1.679-2.252-3.314-4.246t-3.056-3.409h-5.466v29.717h6.628V282.335q3.486,4.417,6.564,9.155t5.961,9.884h5.638Zm18.53-25.579a7.28,7.28,0,0,0-1.744-2.573,7.876,7.876,0,0,0-2.668-1.629,10.024,10.024,0,0,0-6.715,0,7.876,7.876,0,0,0-2.668,1.629,7.239,7.239,0,0,0-1.743,2.573,8.782,8.782,0,0,0-.624,3.367,8.611,8.611,0,0,0,.624,3.344,7.468,7.468,0,0,0,1.743,2.573,7.7,7.7,0,0,0,2.668,1.651,10.024,10.024,0,0,0,6.715,0,7.7,7.7,0,0,0,2.668-1.651,7.512,7.512,0,0,0,1.744-2.573,8.648,8.648,0,0,0,.624-3.344A8.82,8.82,0,0,0,462.357,275.8Zm-5.424,5.939a2.958,2.958,0,0,1-2.388.987,2.846,2.846,0,0,1-2.325-.987,3.9,3.9,0,0,1-.817-2.572,3.968,3.968,0,0,1,.817-2.616,2.848,2.848,0,0,1,2.325-.986,2.96,2.96,0,0,1,2.388.986,3.9,3.9,0,0,1,.84,2.616A3.827,3.827,0,0,1,456.933,281.734Zm-9.662,14.409h14.634v-5.275H447.271v5.275Zm30.73-.751a6.415,6.415,0,0,1-4.3,1.179,17.254,17.254,0,0,1-4.218-.45,18.78,18.78,0,0,1-2.84-.922l-1.163,5.275a8.234,8.234,0,0,0,1.464.514q0.947,0.258,2.13.494t2.454,0.386a20.961,20.961,0,0,0,2.432.15,16.663,16.663,0,0,0,5.186-.729,10.436,10.436,0,0,0,3.68-2.016,8.208,8.208,0,0,0,2.195-3.045,9.825,9.825,0,0,0,.732-3.816,8.6,8.6,0,0,0-2.992-6.968q-2.991-2.51-9.275-2.938,0.129-1.071.237-2.508t0.193-2.981h10.761v-5.36H468.532q-0.173,3.6-.473,7.719t-0.775,8.1a41.2,41.2,0,0,1,5.854.344,13.651,13.651,0,0,1,3.7.986,4.188,4.188,0,0,1,1.937,1.608,4.322,4.322,0,0,1,.56,2.208A3.589,3.589,0,0,1,478,295.392Zm22.9,5.982a37.2,37.2,0,0,1,1.356-7.718,55.443,55.443,0,0,1,2.582-7.226,48.116,48.116,0,0,1,3.142-6.025,28.775,28.775,0,0,1,3.034-4.159v-4.632H490.139v5.446h12.955a37.962,37.962,0,0,0-2.97,5,55.9,55.9,0,0,0-2.647,6.154,61.954,61.954,0,0,0-2,6.646,42.717,42.717,0,0,0-1.076,6.518h6.5Z" transform="translate(-419.031 -271)"/>
</svg>
